<svg id="SPACE_BOX" data-name="SPACE BOX" xmlns="http://www.w3.org/2000/svg" width="226" height="70" viewBox="0 0 226 70">
  <g id="Rectangle_1" data-name="Rectangle 1" transform="translate(0 0)" fill="none" stroke="#002b50" stroke-miterlimit="10" stroke-width="4.93">
    <rect x="2.465" y="2.465" width="122.333" height="65.07" fill="none"/>
  </g>
  <g id="Group_1" data-name="Group 1" transform="translate(18.275 23.225)">
    <g id="Path_1" data-name="Path 1" transform="translate(-63.359 -113.541)" fill="#002b50" stroke-miterlimit="10">
      <path d="M 71.37098693847656 134.6259460449219 C 69.60288238525391 134.6259460449219 67.78195190429688 134.1177673339844 66.45570373535156 133.5780181884766 L 66.54726409912109 133.3434600830078 C 68.12874603271484 133.9877624511719 69.91544342041016 134.4628601074219 71.40340423583984 134.4628601074219 C 72.61331939697266 134.4628601074219 73.63029479980469 134.1682434082031 74.42608642578125 133.5872192382812 C 75.50973510742188 132.7960052490234 76.10652923583984 131.5276184082031 76.10652923583984 130.0157012939453 C 76.10652923583984 129.1521148681641 75.83570861816406 127.532958984375 74.02195739746094 126.3915481567383 C 73.19527435302734 125.8713073730469 72.25286865234375 125.5581588745117 71.10778045654297 125.2043685913086 C 69.90834045410156 124.8173522949219 68.68356323242188 124.3587493896484 67.83934783935547 123.6338958740234 C 67.27845764160156 123.1523132324219 66.63462829589844 122.3818664550781 66.63462829589844 120.6846160888672 C 66.63462829589844 119.2119827270508 67.10360717773438 118.0596923828125 68.02853393554688 117.2597579956055 C 68.86968994140625 116.5322723388672 70.10175323486328 116.0988845825195 71.53427886962891 116.0193710327148 C 69.17574310302734 116.2260055541992 67.51148986816406 117.937255859375 67.51148986816406 120.2401580810547 C 67.51148986816406 121.303581237793 67.88431549072266 122.8059616088867 69.66047668457031 123.924201965332 C 70.53531646728516 124.474983215332 71.58024597167969 124.8301010131836 72.68653869628906 125.2060623168945 L 72.69086456298828 125.2075271606445 L 72.69519805908203 125.2089767456055 C 73.85374450683594 125.5979232788086 75.16098022460938 126.0763778686523 76.01100921630859 126.8347625732422 C 76.5391845703125 127.3059768676758 77.14546966552734 128.0700988769531 77.14546966552734 129.8107604980469 C 77.14546966552734 131.3533172607422 76.66101837158203 132.5424041748047 75.70558929443359 133.3449554443359 C 74.70791625976562 134.1829833984375 73.20903778076172 134.6259460449219 71.37098693847656 134.6259460449219 Z M 76.48462677001953 117.423698425293 C 75.13688659667969 116.6358871459961 73.87575531005859 116.1725845336914 72.71311950683594 116.0389404296875 C 74.02804565429688 116.1621932983398 75.36713409423828 116.6271362304688 76.53872680664062 117.3513336181641 L 76.48462677001953 117.423698425293 Z" stroke="none"/>
      <path d="M 71.37098693847656 137.0907592773438 C 68.12737274169922 137.0907592773438 64.75370788574219 135.7236785888672 63.3590202331543 134.7326965332031 L 65.24034118652344 129.9132232666016 C 66.73227691650391 130.9046173095703 69.55449676513672 131.998046875 71.40340423583984 131.998046875 C 72.60360717773438 131.998046875 73.64170837402344 131.5881652832031 73.64170837402344 130.0157012939453 C 73.64170837402344 128.6144409179688 72.24701690673828 128.1358184814453 70.36528015136719 127.5547485351562 C 67.60832977294922 126.6662368774414 64.16982269287109 125.2645645141602 64.16982269287109 120.6846237182617 C 64.16982269287109 116.1046829223633 67.54347991943359 113.5412521362305 72.01971435546875 113.5412521362305 C 75.10123443603516 113.5412521362305 78.02068328857422 114.9766693115234 79.93483734130859 116.9248580932617 L 77.04780578613281 120.7870864868164 C 75.32855987548828 119.4541320800781 73.51204681396484 118.4631805419922 72.01971435546875 118.4631805419922 C 70.98159027099609 118.4631805419922 69.97629547119141 118.9755325317383 69.97629547119141 120.2401657104492 C 69.97629547119141 121.6760101318359 71.46823120117188 122.1887817382812 73.47963714599609 122.8723297119141 C 76.43149566650391 123.8633041381836 79.61028289794922 125.2304077148438 79.61028289794922 129.8107604980469 C 79.61028289794922 134.5614776611328 76.17177581787109 137.0907592773438 71.37098693847656 137.0907592773438 Z" stroke="none" fill="#002b50"/>
    </g>
    <g id="Path_2" data-name="Path 2" transform="translate(-63.359 -113.541)" fill="#002b50" stroke-miterlimit="10">
      <path d="M 85.54802703857422 134.216064453125 L 84.89847564697266 134.216064453125 L 84.89847564697266 116.4159240722656 L 85.54802703857422 116.4159240722656 L 85.54802703857422 118.5656509399414 L 85.54802703857422 124.5810012817383 L 85.54802703857422 126.6624069213867 L 85.54802703857422 129.1272125244141 L 85.54802703857422 134.216064453125 Z M 93.12413787841797 126.0511245727539 C 93.19449615478516 126.0030364990234 93.26334381103516 125.9532012939453 93.33080291748047 125.9015579223633 C 94.20451354980469 125.2326278686523 95.24601745605469 123.9328308105469 95.24601745605469 121.5393753051758 C 95.24601745605469 119.6656341552734 94.66299438476562 118.2331848144531 93.51314544677734 117.2818222045898 C 93.16667175292969 116.9951553344727 92.79781341552734 116.7771148681641 92.42273712158203 116.6115875244141 C 93.38205718994141 116.811637878418 94.16519927978516 117.1628341674805 94.73572540283203 117.6548614501953 C 95.62550354003906 118.4222106933594 96.05803680419922 119.5698165893555 96.05803680419922 121.1632308959961 C 96.05803680419922 122.9688568115234 95.51570892333984 124.3448028564453 94.44612884521484 125.2528762817383 C 94.07064819335938 125.5716552734375 93.62760925292969 125.8384323120117 93.12413787841797 126.0511245727539 Z" stroke="none"/>
      <path d="M 88.01284027099609 136.6808776855469 L 82.43367004394531 136.6808776855469 L 82.43367004394531 113.9511184692383 L 90.34839630126953 113.9511184692383 C 95.44131469726562 113.9511184692383 98.52285766601562 116.4462585449219 98.52285766601562 121.1632232666016 C 98.52285766601562 126.4608840942383 94.85743713378906 129.1272125244141 89.66725921630859 129.1272125244141 L 88.01284027099609 129.1272125244141 L 88.01284027099609 136.6808776855469 Z M 88.01284027099609 118.5656585693359 L 88.01284027099609 124.5809936523438 L 89.27787017822266 124.5809936523438 C 91.41893005371094 124.5809936523438 92.78121185302734 123.8974380493164 92.78121185302734 121.5393753051758 C 92.78121185302734 119.2150421142578 91.61342620849609 118.5656585693359 89.57000732421875 118.5656585693359 L 88.01284027099609 118.5656585693359 Z" stroke="none" fill="#002b50"/>
    </g>
    <g id="Path_3" data-name="Path 3" transform="translate(-63.359 -113.541)" fill="#002b50" stroke-miterlimit="10">
      <path d="M 114.3567886352539 134.216064453125 L 113.6565017700195 134.216064453125 L 112.7247161865234 131.1174774169922 L 112.3842926025391 129.9853973388672 L 112.5395278930664 129.9853973388672 L 111.7068099975586 126.8818435668945 L 110.6199951171875 122.8312530517578 L 114.3567886352539 134.216064453125 Z M 100.5518493652344 134.216064453125 L 100.3711776733398 134.216064453125 L 101.6753234863281 129.9853973388672 L 101.8243942260742 129.9853973388672 L 101.4839324951172 131.1173095703125 L 100.5518493652344 134.216064453125 Z M 108.6913146972656 116.9551849365234 L 107.1527328491211 116.9551849365234 L 107.0230560302734 116.9551849365234 L 105.692008972168 116.9551849365234 L 105.8582458496094 116.4159240722656 L 108.5143203735352 116.4159240722656 L 108.6913146972656 116.9551849365234 Z" stroke="none"/>
      <path d="M 117.7599868774414 136.6808776855469 L 111.8238525390625 136.6808776855469 L 110.3643264770508 131.8272705078125 L 103.8442840576172 131.8272705078125 L 102.3843536376953 136.6808776855469 L 97.03211212158203 136.6808776855469 L 104.0387878417969 113.9511184692383 L 110.2994918823242 113.9511184692383 L 117.7599868774414 136.6808776855469 Z M 107.023063659668 119.4199905395508 L 104.7847595214844 127.5205764770508 L 109.3262023925781 127.5205764770508 L 107.1527252197266 119.4199905395508 L 107.023063659668 119.4199905395508 Z" stroke="none" fill="#002b50"/>
    </g>
    <g id="Path_4" data-name="Path 4" transform="translate(-63.359 -113.541)" fill="#002b50" stroke-miterlimit="10">
      <path d="M 126.7777862548828 134.5341796875 C 121.7540130615234 133.8396148681641 120.6482162475586 129.3334655761719 120.6482162475586 125.5040664672852 C 120.6482162475586 122.0833969116211 121.4930725097656 119.5334167480469 123.1593322753906 117.9249725341797 C 124.0494689941406 117.0657043457031 125.0792846679688 116.5825958251953 126.0314636230469 116.3160858154297 C 124.8291244506836 116.7529296875 123.7963027954102 117.5874252319336 123.024787902832 118.7685775756836 C 121.9863586425781 120.3583602905273 121.4598388671875 122.5094375610352 121.4598388671875 125.1620864868164 C 121.4598388671875 127.8362121582031 121.9446716308594 130.0016784667969 122.9008865356445 131.5983276367188 C 123.812385559082 133.1203155517578 125.1563873291016 134.1280517578125 126.7777862548828 134.5341796875 Z M 132.5748291015625 117.8821182250977 C 131.7087554931641 117.0683364868164 130.5414428710938 116.2924041748047 129.0622406005859 116.0453338623047 C 130.4325408935547 116.1964950561523 131.6433563232422 116.7838592529297 132.6829681396484 117.7999267578125 L 132.5748291015625 117.8821182250977 Z" stroke="none"/>
      <path d="M 128.1743621826172 137.0907592773438 C 122.1081314086914 137.0907592773438 118.1834106445312 133.1260681152344 118.1834106445312 125.5040740966797 C 118.1834106445312 116.5145645141602 123.5032424926758 113.5412521362305 128.3364410400391 113.5412521362305 C 131.2234649658203 113.5412521362305 134.0780792236328 114.8741912841797 136.1539154052734 118.2578125 L 132.1963500976562 121.2657012939453 C 130.9313201904297 119.4199905395508 129.6338806152344 118.4290237426758 128.0767059326172 118.4290237426758 C 125.6438980102539 118.4290237426758 123.9246368408203 120.6846237182617 123.9246368408203 125.1620864868164 C 123.9246368408203 129.4687805175781 125.3197479248047 132.271728515625 128.4660949707031 132.271728515625 C 130.1205291748047 132.271728515625 131.6124572753906 131.3828125 133.0075531005859 130.0157012939453 L 135.8297576904297 133.8437805175781 C 133.4941864013672 136.0998077392578 131.1586303710938 137.0907592773438 128.1743621826172 137.0907592773438 Z" stroke="none" fill="#002b50"/>
    </g>
    <g id="Path_5" data-name="Path 5" transform="translate(-63.359 -113.541)" fill="#002b50" stroke-miterlimit="10">
      <path d="M 150.0067901611328 134.216064453125 L 140.5984954833984 134.216064453125 L 140.5984954833984 116.4159240722656 L 149.7794799804688 116.4159240722656 L 149.7794799804688 116.6135940551758 L 143.7132568359375 116.6135940551758 L 141.2484436035156 116.6135940551758 L 141.2484436035156 119.0784072875977 L 141.2484436035156 122.5303344726562 L 141.2484436035156 124.9951477050781 L 143.7132568359375 124.9951477050781 L 148.5792999267578 124.9951477050781 L 148.5792999267578 125.1924057006836 L 143.7132568359375 125.1924057006836 L 141.2484436035156 125.1924057006836 L 141.2484436035156 127.6572113037109 L 141.2484436035156 131.5540161132812 L 141.2484436035156 134.0188293457031 L 143.7132568359375 134.0188293457031 L 150.0067901611328 134.0188293457031 L 150.0067901611328 134.216064453125 Z" stroke="none"/>
      <path d="M 138.1336822509766 113.9511108398438 L 152.2442932128906 113.9511108398438 L 152.2442932128906 119.0783996582031 L 143.7132568359375 119.0783996582031 L 143.7132568359375 122.5303344726562 L 151.0440979003906 122.5303344726562 L 151.0440979003906 127.6572113037109 L 143.7132568359375 127.6572113037109 L 143.7132568359375 131.5540161132812 L 152.4716033935547 131.5540161132812 L 152.4716033935547 136.6808776855469 L 138.1336822509766 136.6808776855469 L 138.1336822509766 113.9511108398438 Z" stroke="none" fill="#002b50"/>
    </g>
  </g>
  <g id="Group_2" data-name="Group 2" transform="translate(122.749)">
    <g id="Path_6" data-name="Path 6" transform="translate(-167.833 -90.316)" fill="#002b50" stroke-miterlimit="10">
      <path d="M199.654,120.514c0-1.777-1.1-2.29-2.53-2.29H195.34v4.683h1.589C198.81,122.906,199.654,121.847,199.654,120.514Z" stroke="none"/>
      <path d="M 195.3396453857422 118.2236480712891 L 197.1237335205078 118.2236480712891 C 198.5508575439453 118.2236480712891 199.6537933349609 118.7364349365234 199.6537933349609 120.5138397216797 C 199.6537933349609 121.8467864990234 198.8101654052734 122.9064788818359 196.9288482666016 122.9064788818359 L 195.3396453857422 122.9064788818359 L 195.3396453857422 118.2236480712891 Z" stroke="none" fill="#002b50"/>
    </g>
    <g id="Path_7" data-name="Path 7" transform="translate(-167.833 -90.316)" fill="#002b50" stroke-miterlimit="10">
      <path d="M 218.1121520996094 129.7727661132812 C 217.7245483398438 129.7727661132812 217.5843811035156 129.6650848388672 217.5245208740234 129.6190948486328 C 217.3556365966797 129.4893493652344 217.1895904541016 129.2417602539062 217.0443115234375 128.903076171875 C 216.7913055419922 128.3132934570312 216.4897308349609 127.1795806884766 216.4897308349609 125.1279296875 C 216.4897308349609 123.6881103515625 216.7174530029297 122.4058380126953 217.114501953125 121.6099090576172 C 217.4717254638672 120.8938369750977 217.7669219970703 120.8938369750977 217.9824676513672 120.8938369750977 C 218.2051544189453 120.8938369750977 218.5416870117188 120.8938369750977 218.9328918457031 121.8262939453125 C 219.2979125976562 122.6963577270508 219.5072631835938 124.0244064331055 219.5072631835938 125.4699172973633 C 219.5072631835938 127.0187301635742 219.3023223876953 128.3080749511719 218.9301910400391 129.1004333496094 C 218.6144409179688 129.7727661132812 218.3591003417969 129.7727661132812 218.1121520996094 129.7727661132812 Z" stroke="none"/>
      <path d="M 217.9824676513672 118.4290161132812 C 221.2585144042969 118.4290161132812 221.9720764160156 122.5986633300781 221.9720764160156 125.4699096679688 C 221.9720764160156 128.9218444824219 221.0964202880859 132.2375793457031 218.1121520996094 132.2375793457031 C 214.6736602783203 132.2375793457031 214.0249176025391 128.3065948486328 214.0249176025391 125.1279296875 C 214.0249176025391 121.7443237304688 215.0630340576172 118.4290161132812 217.9824676513672 118.4290161132812 Z" stroke="none" fill="#002b50"/>
    </g>
    <g id="Path_8" data-name="Path 8" transform="translate(-167.833 -90.316)" fill="#002b50" stroke-miterlimit="10">
      <path d="M197.578,127.076H195.34V132.2h2.076c2.271,0,3.049-1.026,3.049-2.666C200.465,127.863,199.394,127.076,197.578,127.076Z" stroke="none"/>
      <path d="M 195.3396453857422 127.0761108398438 L 197.5775604248047 127.0761108398438 C 199.3940734863281 127.0761108398438 200.464599609375 127.8625793457031 200.464599609375 129.5370788574219 C 200.464599609375 131.1778717041016 199.6862030029297 132.2033996582031 197.4154815673828 132.2033996582031 L 195.3396453857422 132.2033996582031 L 195.3396453857422 127.0761108398438 Z" stroke="none" fill="#002b50"/>
    </g>
    <g id="Path_9" data-name="Path 9" transform="translate(-167.833 -90.316)" fill="#002b50" stroke-miterlimit="10">
      <path d="M 268.6192016601562 157.8511962890625 L 170.2976226806641 157.8511962890625 L 170.2976226806641 92.78082275390625 L 268.6192016601562 92.78082275390625 L 268.6192016601562 157.8511962890625 Z M 207.8316345214844 134.1367340087891 C 208.158935546875 134.6993713378906 208.5258178710938 135.2235107421875 208.9321136474609 135.7085418701172 C 211.0403289794922 138.2252960205078 214.1362609863281 139.5555725097656 217.8852233886719 139.5555725097656 C 220.0189971923828 139.5555725097656 221.9538269042969 139.1155090332031 223.6244354248047 138.2631225585938 L 223.0628356933594 139.1456909179688 L 227.5528106689453 139.1456909179688 L 234.0728759765625 139.1456909179688 L 235.4564056396484 139.1456909179688 L 236.1769866943359 137.9646301269531 L 238.4284362792969 134.2743988037109 L 240.6171264648438 137.9435577392578 L 241.3341979980469 139.1456909179688 L 242.7339477539062 139.1456909179688 L 249.15673828125 139.1456909179688 L 253.5682983398438 139.1456909179688 L 251.2557678222656 135.3888244628906 L 244.7042388916016 124.7453689575195 L 250.7769317626953 115.2823181152344 L 253.2129211425781 111.4863052368164 L 248.7025146484375 111.4863052368164 L 242.4418182373047 111.4863052368164 L 241.0432434082031 111.4863052368164 L 240.3259124755859 112.6868896484375 L 238.6181945800781 115.545036315918 L 236.9861755371094 112.7186126708984 L 236.2746276855469 111.4863052368164 L 234.8516540527344 111.4863052368164 L 228.4288635253906 111.4863052368164 L 223.9943389892578 111.4863052368164 L 224.9539031982422 113.0298538208008 C 223.1108245849609 111.7455673217773 220.8515167236328 111.0764389038086 218.3066253662109 111.0764389038086 C 215.0399017333984 111.0764389038086 212.0237731933594 112.258544921875 209.8138275146484 114.4049911499023 C 208.8957214355469 115.2967300415039 208.1266326904297 116.3422393798828 207.5168304443359 117.5255355834961 C 206.9772644042969 115.1996841430664 205.6446838378906 113.8425140380859 204.4848937988281 113.0749359130859 C 202.8696899414062 112.0059509277344 200.7588653564453 111.4863052368164 198.0317993164062 111.4863052368164 L 189.7600860595703 111.4863052368164 L 187.2952728271484 111.4863052368164 L 187.2952728271484 113.9511184692383 L 187.2952728271484 136.6808776855469 L 187.2952728271484 139.1456909179688 L 189.7600860595703 139.1456909179688 L 197.5775604248047 139.1456909179688 C 200.9770202636719 139.1456909179688 203.6882476806641 138.3602905273438 205.6359405517578 136.8112945556641 C 206.5666046142578 136.0711517333984 207.3019256591797 135.1719512939453 207.8316345214844 134.1367340087891 Z M 229.9202728271484 128.3692169189453 C 230.0489501953125 127.4164886474609 230.1136932373047 126.4139022827148 230.1136932373047 125.3674392700195 C 230.1136932373047 123.6140594482422 229.9516906738281 122.0068206787109 229.6293334960938 120.5508041381836 L 232.2316284179688 124.7369003295898 L 229.9202728271484 128.3692169189453 Z" stroke="none"/>
      <path d="M 172.762451171875 95.24563598632812 L 172.762451171875 155.3863830566406 L 266.1543884277344 155.3863830566406 L 266.1543884277344 95.24563598632812 L 172.762451171875 95.24563598632812 M 221.8866577148438 109.021484375 L 228.4288635253906 109.021484375 L 234.8516387939453 109.021484375 L 237.6976013183594 109.021484375 L 238.6545104980469 110.6787261962891 L 239.6446990966797 109.021484375 L 242.4418182373047 109.021484375 L 248.7025146484375 109.021484375 L 257.723388671875 109.021484375 L 252.8513488769531 116.6135406494141 L 247.6153869628906 124.7726974487305 L 253.3547973632812 134.0967864990234 L 257.9798583984375 141.6105041503906 L 249.15673828125 141.6105041503906 L 242.7339477539062 141.6105041503906 L 239.9344635009766 141.6105041503906 L 238.5003204345703 139.2062835693359 L 238.4046478271484 139.0458984375 L 238.2810974121094 139.2483825683594 L 236.8399200439453 141.6105041503906 L 234.0728759765625 141.6105041503906 L 227.5528259277344 141.6105041503906 L 221.5675964355469 141.6105041503906 C 220.3988037109375 141.8829650878906 219.1672058105469 142.0203857421875 217.8852233886719 142.0203857421875 C 213.8264312744141 142.0203857421875 210.3791046142578 140.6908874511719 207.8406372070312 138.1618041992188 C 207.6264495849609 138.3623962402344 207.4028930664062 138.5553283691406 207.170166015625 138.7404174804688 C 204.7754974365234 140.6448822021484 201.548095703125 141.6105041503906 197.5775756835938 141.6105041503906 L 189.7601013183594 141.6105041503906 L 184.8304748535156 141.6105041503906 L 184.8304748535156 136.6808776855469 L 184.8304748535156 113.9511108398438 L 184.8304748535156 109.021484375 L 189.7601013183594 109.021484375 L 198.0317993164062 109.021484375 C 201.2579956054688 109.021484375 203.8137969970703 109.6750335693359 205.8452453613281 111.0195159912109 C 206.6263122558594 111.5364379882812 207.3106384277344 112.1446990966797 207.8931884765625 112.8385925292969 C 207.9612579345703 112.7696380615234 208.0291748046875 112.7023010253906 208.0965270996094 112.6368865966797 C 210.76904296875 110.0411529541016 214.3950500488281 108.6116333007812 218.3066253662109 108.6116333007812 C 219.5498199462891 108.6116333007812 220.7478332519531 108.7490997314453 221.8866577148438 109.021484375 M 167.8328247070312 90.31600952148438 L 271.0840148925781 90.31600952148438 L 271.0840148925781 160.3160095214844 L 167.8328247070312 160.3160095214844 L 167.8328247070312 90.31600952148438 Z M 217.8852233886719 137.0907592773438 C 223.7561492919922 137.0907592773438 227.6488647460938 133.1260681152344 227.6488647460938 125.367431640625 C 227.6488647460938 116.6857604980469 223.3023223876953 113.541259765625 218.3066253662109 113.541259765625 C 213.6030883789062 113.541259765625 208.2832641601562 116.617431640625 208.2832641601562 125.367431640625 C 208.2832641601562 133.0919189453125 211.8514404296875 137.0907592773438 217.8852233886719 137.0907592773438 Z M 197.5775756835938 136.6808776855469 C 203.2543640136719 136.6808776855469 206.3683166503906 134.2199401855469 206.3683166503906 129.6741333007812 C 206.3683166503906 126.9736633300781 204.9736175537109 125.3332824707031 202.864990234375 124.4443817138672 C 204.2601013183594 123.3846817016602 205.2977905273438 121.8126068115234 205.2977905273438 119.7961273193359 C 205.2977905273438 115.1474304199219 201.9245147705078 113.9511108398438 198.0317993164062 113.9511108398438 L 189.7601013183594 113.9511108398438 L 189.7601013183594 136.6808776855469 L 197.5775756835938 136.6808776855469 Z M 238.5818939208984 120.4113616943359 L 234.8516387939453 113.9511108398438 L 228.4288635253906 113.9511108398438 L 235.1434020996094 124.7522125244141 L 227.5528259277344 136.6808776855469 L 234.0728759765625 136.6808776855469 L 238.4522399902344 129.5029296875 L 242.7339477539062 136.6808776855469 L 249.15673828125 136.6808776855469 L 241.7930755615234 124.7180557250977 L 248.7025146484375 113.9511108398438 L 242.4418182373047 113.9511108398438 L 238.5818939208984 120.4113616943359 Z" stroke="none" fill="#002b50"/>
    </g>
  </g>
</svg>
